<?xml version="1.0" standalone="no"?>
<!DOCTYPE svg PUBLIC "-//W3C//DTD SVG 20010904//EN"
 "http://www.w3.org/TR/2001/REC-SVG-20010904/DTD/svg10.dtd">
<svg version="1.0" xmlns="http://www.w3.org/2000/svg"
 width="1024.000000pt" height="1024.000000pt" viewBox="0 0 1024.000000 1024.000000"
 preserveAspectRatio="xMidYMid meet">

<g transform="translate(0.000000,1024.000000) scale(0.100000,-0.100000)"
fill="#000000" stroke="none">
<path d="M0 9390 l0 -851 23 12 c12 7 47 30 77 51 65 47 438 292 560 368 47
29 148 94 225 145 138 90 260 168 435 275 49 30 99 63 111 73 11 10 49 36 84
57 35 21 101 63 146 92 46 30 122 79 169 109 47 29 87 56 90 60 3 3 41 27 85
53 44 26 113 69 152 94 126 82 254 161 368 229 61 35 114 69 119 74 6 5 -521
9 -1317 9 l-1327 0 0 -850z"/>
<path d="M2774 10201 c-58 -38 -148 -96 -314 -202 -47 -30 -107 -68 -135 -84
-62 -35 -112 -67 -668 -431 -241 -158 -373 -242 -497 -318 -131 -81 -135 -83
-400 -258 -129 -85 -280 -183 -335 -218 -55 -35 -156 -100 -225 -145 -69 -45
-142 -92 -162 -104 l-38 -23 0 -979 c0 -538 4 -979 8 -979 5 0 17 9 27 20 10
11 23 20 29 20 6 0 17 9 24 20 7 11 19 20 28 20 9 0 24 8 33 18 9 10 32 27 51
38 19 10 45 29 56 41 12 11 36 29 55 38 18 10 41 28 51 40 10 13 39 33 64 45
25 13 48 29 51 37 3 7 26 28 52 45 25 17 51 36 56 42 11 12 103 76 110 76 2 0
19 14 37 30 18 17 36 30 40 30 13 0 82 50 146 108 14 12 28 22 31 22 15 0 96
87 112 119 16 33 17 18 24 -393 7 -427 -3 -1258 -16 -1296 -1 -3 0 -13 0 -23
2 -10 -8 -21 -21 -26 -22 -9 -22 -10 -2 -10 20 -1 22 -7 23 -61 0 -41 -3 -60
-12 -60 -6 -1 -25 -12 -42 -25 -31 -26 -28 -33 6 -15 37 21 20 -14 -26 -52
-53 -42 -46 -59 8 -22 20 14 37 20 37 14 0 -5 -5 -10 -11 -10 -5 0 -8 -4 -5
-9 3 -4 -12 -24 -34 -43 -21 -20 -41 -31 -43 -25 -2 6 -21 -8 -41 -31 -28 -30
-42 -39 -51 -32 -8 6 -16 6 -24 -3 -10 -10 -11 -6 -6 16 11 42 -11 33 -41 -18
-14 -25 -28 -45 -31 -45 -7 0 2 57 12 83 4 9 3 17 -3 17 -6 0 -13 -13 -17 -30
-4 -16 -15 -36 -25 -43 -10 -7 -20 -21 -23 -32 -2 -11 -4 -3 -4 18 0 20 -3 40
-6 44 -4 3 -7 -8 -7 -25 0 -18 -4 -32 -10 -32 -5 0 -10 -7 -10 -16 0 -8 -4
-13 -9 -10 -5 3 -7 15 -4 26 3 11 1 20 -5 20 -5 0 -12 -15 -16 -32 -5 -25 -9
-30 -16 -18 -10 17 -12 16 -33 -25 -11 -20 -16 -24 -17 -12 0 27 -20 20 -20
-8 0 -28 -9 -32 -29 -13 -11 11 -12 7 -6 -20 7 -35 -1 -41 -20 -15 -11 15 -13
15 -24 -5 -10 -19 -9 -22 6 -23 10 0 3 -5 -16 -10 -55 -17 -30 -19 67 -7 67 8
116 8 180 0 115 -14 284 -72 250 -85 -10 -4 -10 -8 2 -16 16 -11 25 -66 10
-56 -5 3 -11 1 -15 -5 -3 -6 1 -13 10 -17 14 -5 11 -9 -14 -19 -21 -9 -29 -18
-25 -28 4 -11 0 -16 -15 -16 -12 0 -21 -4 -21 -10 0 -5 4 -10 9 -10 5 0 12 -7
15 -16 4 -12 2 -15 -9 -10 -10 3 -15 0 -15 -11 0 -9 -7 -21 -16 -28 -15 -10
-15 -13 1 -28 15 -16 15 -17 -11 -17 -26 0 -27 -1 -9 -20 17 -19 16 -19 -11
-17 -16 1 -32 6 -35 11 -4 4 -9 4 -12 -1 -4 -6 5 -16 18 -23 38 -20 30 -30
-20 -25 -27 2 -43 0 -40 -6 4 -5 13 -9 21 -9 18 0 18 -16 0 -23 -9 -4 -12 -14
-9 -26 5 -19 1 -21 -38 -21 l-44 -1 35 -20 c19 -11 25 -17 14 -14 -14 4 -24 0
-28 -10 -3 -8 -13 -15 -23 -15 -10 0 -24 -4 -31 -9 -11 -7 -11 -11 2 -24 13
-12 13 -17 2 -26 -7 -6 -16 -8 -19 -5 -3 3 -16 -1 -29 -10 -23 -16 -16 -21 25
-17 9 1 17 -3 17 -8 0 -6 -9 -11 -19 -11 -11 0 -23 -4 -26 -10 -3 -5 -15 -10
-26 -10 -12 0 -19 -5 -16 -12 2 -7 14 -12 26 -11 32 4 25 -14 -8 -20 -16 -3
-41 -18 -56 -32 -34 -31 -28 -32 20 -4 35 21 73 20 59 -2 -3 -6 -22 -18 -41
-25 -28 -12 -32 -18 -23 -29 10 -12 3 -23 -35 -60 -27 -25 -45 -48 -41 -52 3
-4 21 8 40 26 19 18 36 29 39 23 4 -5 -6 -18 -21 -29 -15 -11 -38 -43 -52 -69
-35 -69 -81 -136 -88 -129 -4 3 -2 9 3 13 6 4 16 25 24 47 8 22 18 43 24 46 5
4 7 15 2 25 -6 15 -13 7 -36 -44 -30 -67 -31 -67 -59 -52 -13 7 -17 16 -13 28
6 15 5 15 -8 2 -9 -9 -21 -29 -27 -45 -6 -17 -11 -24 -11 -17 -1 6 -5 12 -11
12 -5 0 -10 -6 -10 -12 -1 -7 -10 -31 -21 -53 l-20 -40 4 33 c2 18 -2 37 -9
43 -10 8 -16 0 -25 -33 -7 -24 -12 -51 -11 -61 0 -9 -3 -15 -9 -12 -5 4 -9 27
-9 53 0 56 -15 46 -27 -18 -11 -58 -29 -59 -24 -1 2 32 -1 42 -11 39 -7 -3
-14 -15 -14 -27 -1 -12 -6 -27 -13 -34 -6 -6 -11 -22 -11 -36 -1 -23 -2 -24
-11 -8 -5 9 -15 17 -22 17 -18 0 -23 -276 -5 -298 11 -13 11 -14 -1 -8 -8 6
-7 -1 4 -18 11 -17 24 -25 33 -21 15 6 32 -10 32 -30 0 -5 -5 -3 -10 5 -5 8
-10 10 -10 3 0 -17 279 -278 295 -277 8 1 13 -2 10 -6 -7 -11 40 -51 50 -43 4
5 5 3 2 -3 -3 -6 24 -37 61 -69 37 -31 121 -108 188 -170 118 -112 157 -145
244 -215 24 -19 64 -53 89 -75 85 -75 131 -106 144 -99 6 4 9 4 5 -1 -4 -4 1
-15 12 -24 10 -9 32 -54 48 -101 17 -47 37 -98 46 -115 9 -16 13 -39 10 -50
-4 -14 -2 -16 4 -7 6 9 11 7 19 -10 19 -42 119 -192 171 -257 149 -184 337
-361 482 -451 30 -19 56 -38 58 -42 2 -5 11 -8 20 -9 11 0 12 -2 5 -6 -22 -8
-14 -25 9 -20 29 7 67 -17 43 -27 -24 -9 -18 -23 15 -35 17 -5 30 -15 30 -20
0 -15 -13 -14 -28 1 -8 8 -12 8 -12 1 0 -6 7 -16 15 -23 9 -7 23 -28 32 -48
15 -32 15 -36 0 -46 -13 -10 -2 -19 71 -54 129 -61 291 -122 326 -122 32 0
149 -147 260 -327 85 -136 245 -365 296 -423 17 -19 47 -52 66 -73 l34 -37
3065 0 3065 0 0 28 c0 15 5 34 10 42 8 12 10 11 10 -7 0 -13 4 -23 9 -23 13 0
20 25 15 52 -2 12 -2 17 2 11 12 -26 42 -14 49 19 4 17 16 41 26 52 19 20 19
20 14 -14 -4 -19 -9 -46 -11 -60 -3 -14 -3 -22 0 -19 7 6 44 111 53 147 6 23
18 29 28 12 3 -6 1 -10 -5 -10 -7 0 -9 -7 -6 -16 4 -9 1 -23 -5 -31 -7 -7 -9
-16 -6 -19 10 -11 27 7 27 28 0 16 3 18 14 9 9 -7 17 -8 20 -3 3 6 -1 12 -9
16 -16 6 -21 36 -6 36 5 0 18 -8 27 -18 17 -16 18 -16 11 1 -4 12 -1 17 9 17
12 0 15 7 12 30 -3 20 0 31 10 35 20 8 33 -15 21 -36 -5 -11 -5 -20 0 -23 11
-7 21 17 21 49 0 13 7 28 16 33 9 5 15 12 15 15 -3 20 0 27 13 27 19 0 29 31
14 43 -9 6 -8 7 4 3 10 -3 20 -1 24 5 3 6 13 8 21 5 9 -4 13 -1 10 6 -2 7 -11
12 -20 12 -25 -2 -8 23 24 36 17 7 37 26 45 42 8 16 20 26 25 22 8 -4 7 0 0
14 -15 28 -14 31 9 25 11 -3 20 -1 20 4 0 5 14 23 30 42 21 22 29 39 25 52 -5
15 -1 19 19 19 26 0 44 16 31 28 -4 4 -10 1 -12 -5 -3 -7 -11 -13 -20 -13 -9
0 2 16 26 39 23 22 41 44 41 50 0 6 6 11 13 11 19 0 50 36 45 52 -3 7 6 23 20
36 15 14 22 30 19 42 -4 17 11 31 38 34 19 2 60 51 57 68 -2 9 6 19 18 23 l20
6 0 1330 c0 1056 -3 1329 -12 1329 -7 0 -22 7 -33 16 -16 12 -17 16 -6 23 16
10 6 31 -14 31 -25 0 -85 42 -83 57 2 9 -4 19 -12 23 -8 5 -42 25 -75 45 l-60
37 40 -5 40 -6 -36 22 c-48 30 -121 88 -116 93 2 3 26 -5 52 -16 26 -11 50
-18 53 -15 4 3 -4 8 -16 12 -12 3 -22 9 -22 13 0 4 -13 13 -29 20 -16 6 -39
23 -52 36 -20 21 -21 26 -9 34 12 8 12 10 1 10 -8 0 -11 6 -7 16 3 8 2 12 -4
9 -6 -3 -10 -1 -10 6 0 6 -18 29 -40 50 -44 43 -49 51 -22 43 9 -4 1 8 -18 26
-32 30 -34 33 -17 45 21 15 8 28 -18 19 -12 -5 -16 -2 -13 10 2 9 -10 27 -27
41 -26 23 -27 25 -7 20 12 -4 22 -4 22 -2 0 3 -24 28 -52 56 -34 32 -47 51
-37 51 9 0 22 -7 29 -15 7 -8 18 -15 24 -15 6 1 -14 24 -44 52 -52 48 -51 53
5 33 l20 -7 -20 13 c-20 11 -85 79 -85 87 0 2 9 2 20 -1 17 -4 18 -2 9 14 -5
10 -17 19 -26 19 -13 0 -13 3 -3 15 10 12 8 18 -11 35 -19 16 -21 21 -10 29
11 7 9 14 -13 37 -17 19 -24 35 -20 48 3 10 1 22 -5 26 -7 4 -13 18 -15 31 -1
13 -8 34 -15 47 -7 14 -8 22 -1 22 18 0 11 19 -15 42 -29 25 -32 45 -9 50 13
2 11 9 -12 31 -24 24 -26 31 -16 48 10 16 10 21 -3 25 -8 4 -14 11 -13 18 3
17 -12 56 -23 56 -5 0 -9 10 -9 23 0 67 -7 127 -17 139 -23 29 -37 103 -47
253 -2 17 -6 39 -11 50 -11 23 -11 409 0 560 5 75 13 123 26 149 10 22 19 44
19 48 0 24 83 179 117 218 68 80 71 86 22 52 -66 -45 -158 -161 -229 -289 -13
-24 -26 -43 -29 -43 -3 0 -6 217 -6 483 0 522 -3 568 -56 781 -135 543 -499
998 -983 1231 -199 95 -400 159 -585 185 -80 11 -2455 15 -3156 5 -214 -3
-658 -8 -985 -10 -328 -3 -624 -9 -660 -15 -36 -6 -85 -13 -110 -16 -25 -3
-52 -8 -60 -11 -128 -46 -265 -92 -268 -88 -2 2 -14 -5 -26 -16 -11 -11 -29
-18 -38 -15 -10 2 -16 1 -13 -3 2 -4 -29 -23 -70 -42 -41 -19 -75 -37 -75 -41
0 -5 -6 -8 -14 -8 -8 0 -21 -6 -28 -14 -8 -7 -30 -21 -48 -31 -90 -45 -161
-100 -278 -216 -125 -124 -171 -175 -232 -254 -16 -22 -39 -51 -50 -63 -11
-13 -17 -29 -13 -34 4 -7 1 -8 -7 -3 -10 6 -12 4 -7 -9 4 -9 3 -14 -2 -11 -5
3 -13 -5 -16 -17 -4 -12 -23 -45 -41 -74 -19 -29 -34 -58 -34 -64 0 -5 -4 -18
-10 -28 -21 -37 -70 -153 -75 -179 -4 -15 -10 -37 -15 -48 -5 -11 -12 -33 -16
-50 -4 -16 -8 -34 -10 -40 -63 -213 -69 -401 -73 -2450 0 -506 -5 -915 -9
-908 -4 6 -7 730 -7 1610 l1 1598 22 85 c69 263 124 397 238 580 204 331 525
605 889 761 144 61 374 124 506 138 52 6 347 12 655 13 482 2 828 10 714 16
l-35 2 29 15 c15 8 34 15 42 15 18 0 85 46 77 54 -4 3 1 6 10 6 16 0 45 21 89
63 10 9 22 17 28 17 5 0 13 6 17 13 4 6 24 21 43 31 19 11 40 25 46 30 6 6 30
27 53 46 23 19 63 54 89 78 25 23 50 42 55 42 5 0 22 15 38 33 15 17 34 32 41
32 7 1 12 6 10 13 -1 7 2 12 8 12 5 0 33 23 61 50 28 28 64 60 80 71 16 11 27
25 24 30 -4 5 0 9 7 9 7 0 44 30 81 65 38 36 70 65 71 65 4 0 130 130 196 203
l53 57 -1260 0 -1260 0 -59 -39z m4756 -1161 c394 -49 821 -276 1086 -576 190
-216 297 -405 378 -665 77 -251 71 -7 71 -2714 -1 -2690 4 -2479 -67 -2690
-115 -341 -342 -645 -648 -867 -205 -148 -408 -238 -699 -311 l-86 -21 -2370
-4 c-1679 -2 -2395 0 -2455 8 -222 29 -511 131 -705 250 -124 75 -247 175
-356 286 -246 253 -382 503 -456 839 -17 75 -18 227 -21 2425 -2 1600 0 2380
8 2455 32 332 143 618 347 889 284 379 781 667 1218 706 137 13 4652 2 4755
-10z m-6470 -3809 c0 -5 -21 -21 -47 -37 -27 -15 -52 -33 -56 -41 -11 -18 -37
-17 -37 2 0 8 18 22 40 31 22 9 40 19 40 24 0 7 37 28 53 29 4 1 7 -3 7 -8z
m-145 -100 c3 -5 1 -12 -5 -16 -5 -3 -10 1 -10 9 0 18 6 21 15 7z m90 -11 c-3
-5 -12 -10 -18 -10 -7 0 -6 4 3 10 19 12 23 12 15 0z m123 -1155 c0 -64 -2
-93 -8 -80 -5 11 -8 88 -8 170 1 123 2 137 8 80 4 -38 8 -115 8 -170z m8697
215 c10 -11 15 -20 12 -20 -4 0 -16 9 -27 20 -11 11 -16 20 -12 20 5 0 17 -9
27 -20z m-9235 -99 c0 -12 -20 -25 -27 -18 -7 7 6 27 18 27 5 0 9 -4 9 -9z
m-10 -55 c0 -3 -4 -8 -10 -11 -5 -3 -10 -1 -10 4 0 6 5 11 10 11 6 0 10 -2 10
-4z m-55 -95 c-3 -6 -11 -11 -17 -11 -6 0 -6 6 2 15 14 17 26 13 15 -4z m602
-103 c-3 -7 -5 -2 -5 12 0 14 2 19 5 13 2 -7 2 -19 0 -25z m-667 8 c0 -3 -4
-8 -10 -11 -5 -3 -10 -1 -10 4 0 6 5 11 10 11 6 0 10 -2 10 -4z m-125 -46 c-3
-5 -11 -10 -16 -10 -6 0 -7 5 -4 10 3 6 11 10 16 10 6 0 7 -4 4 -10z m794
-642 c-1 -205 -5 -382 -10 -393 -4 -11 -7 157 -7 373 1 222 5 392 10 392 5 0
8 -160 7 -372z m-1079 172 c0 -5 -4 -10 -10 -10 -5 0 -10 5 -10 10 0 6 5 10
10 10 6 0 10 -4 10 -10z m9020 -1296 c-18 -21 -24 -10 -9 18 8 14 14 18 17 10
2 -7 -2 -19 -8 -28z m-6936 -829 c8 -8 20 -15 27 -15 9 0 10 -3 2 -11 -13 -13
-53 4 -53 23 0 7 -5 6 -15 -2 -9 -8 -15 -8 -15 -2 0 9 15 19 32 21 4 1 13 -6
22 -14z m26 -166 c-12 -8 -9 -10 13 -6 19 3 25 1 18 -6 -5 -5 -22 -6 -37 -3
-22 6 -25 9 -13 17 20 12 37 11 19 -2z m7997 -21 c-3 -8 -6 -5 -6 6 -1 11 2
17 5 13 3 -3 4 -12 1 -19z m-4801 -260 c81 -87 402 -548 381 -548 -9 0 -487
562 -487 572 0 5 17 8 38 8 30 0 44 -7 68 -32z m4564 -68 c0 -5 -5 -10 -11
-10 -5 0 -7 5 -4 10 3 6 8 10 11 10 2 0 4 -4 4 -10z m-473 -472 c-3 -8 -6 -5
-6 6 -1 11 2 17 5 13 3 -3 4 -12 1 -19z m-67 -78 c0 -5 -2 -10 -4 -10 -3 0 -8
5 -11 10 -3 6 -1 10 4 10 6 0 11 -4 11 -10z m-96 -55 c-4 -8 -8 -15 -10 -15
-2 0 -4 7 -4 15 0 8 4 15 10 15 5 0 7 -7 4 -15z m-17 -51 c-9 -9 -28 6 -21 18
4 6 10 6 17 -1 6 -6 8 -13 4 -17z"/>
<path d="M5005 8399 c-318 -13 -687 -95 -1015 -226 -500 -200 -932 -538 -1283
-1005 -284 -378 -467 -835 -539 -1348 -20 -145 -17 -583 5 -735 68 -458 192
-780 453 -1177 223 -338 528 -632 879 -849 480 -296 1050 -451 1655 -452 432
-1 854 77 1227 227 801 322 1441 1066 1662 1931 30 118 69 361 82 515 43 494
-77 1067 -321 1537 -153 293 -325 521 -581 768 -231 223 -452 382 -704 505
-492 241 -938 332 -1520 309z m390 -189 c306 -22 561 -82 853 -202 108 -45
146 -68 110 -68 -31 0 6 -13 42 -14 23 -1 48 -9 57 -19 10 -10 12 -17 6 -17
-7 0 -15 5 -18 10 -4 6 -11 7 -17 4 -6 -4 -5 -10 3 -15 11 -7 8 -11 -11 -16
-24 -7 -23 -8 10 -14 l35 -6 -33 -2 c-22 -1 -31 -5 -26 -12 4 -8 0 -9 -15 -4
-16 5 -20 3 -15 -9 3 -9 12 -16 19 -16 8 0 17 -5 20 -11 14 -21 -5 -21 -50 0
-24 11 -49 21 -55 21 -14 0 -12 -17 3 -23 6 -2 8 -8 4 -13 -4 -5 -12 -2 -18 6
-8 13 -11 13 -23 -2 -7 -10 -18 -18 -25 -18 -6 0 -11 -5 -11 -11 0 -6 9 -8 20
-4 11 4 20 2 20 -4 0 -6 -7 -11 -15 -11 -25 0 -17 -19 23 -56 l37 -35 -40 22
c-44 26 -56 39 -48 52 3 5 -4 4 -16 -2 -25 -14 -28 -23 -4 -14 10 4 14 2 10
-4 -8 -12 150 -96 165 -87 6 4 8 3 5 -3 -8 -12 167 -135 178 -125 5 4 5 2 2
-4 -4 -7 5 -20 21 -29 51 -34 223 -188 298 -269 153 -164 286 -360 394 -581
90 -182 145 -334 194 -538 48 -194 65 -322 70 -522 6 -250 -21 -454 -95 -720
-37 -131 -128 -357 -140 -349 -5 3 -6 -2 -3 -10 4 -10 -71 -176 -80 -176 -1 0
-2 9 -2 20 0 11 4 20 8 20 4 0 8 9 8 19 0 11 6 22 13 24 8 4 9 8 2 14 -16 12
-12 72 5 83 9 6 10 10 3 10 -8 0 -9 9 -2 32 13 48 10 58 -6 21 -8 -18 -16 -33
-19 -33 -5 0 28 90 43 118 10 18 43 121 67 207 194 701 83 1395 -319 1995 -89
134 -136 192 -150 183 -6 -4 -7 -1 -3 6 5 8 -12 32 -47 66 -30 30 -53 56 -51
58 2 2 -3 4 -11 4 -8 0 -15 -5 -15 -10 0 -6 -3 -7 -6 -4 -4 4 -1 13 6 22 10
12 10 15 -4 15 -11 0 -14 5 -10 12 4 7 3 8 -5 4 -6 -4 -14 -1 -17 8 -3 8 -14
18 -25 21 -10 4 -18 11 -16 18 1 6 -5 11 -13 12 -8 1 -14 6 -12 13 1 7 -2 12
-8 12 -16 0 -12 -15 10 -35 11 -10 17 -21 15 -25 -3 -5 8 -14 25 -22 16 -7 31
-16 31 -20 5 -35 1 -53 -11 -54 -35 -2 -40 -5 -40 -22 0 -11 10 -24 23 -30 17
-8 18 -11 5 -11 -14 -1 -18 -10 -18 -41 0 -29 -4 -40 -15 -40 -11 0 -15 -11
-15 -40 0 -36 -3 -40 -25 -40 -32 0 -75 -44 -75 -77 0 -18 -4 -24 -15 -19 -8
3 -15 1 -15 -4 0 -6 7 -10 15 -10 20 0 19 -10 -2 -25 -15 -11 -15 -15 -3 -30
8 -9 15 -27 16 -38 2 -12 0 -16 -2 -9 -3 6 -9 10 -14 7 -4 -2 -16 5 -26 18
-14 16 -14 18 -2 9 12 -9 18 -10 23 -2 4 7 -2 14 -14 17 -12 3 -21 9 -21 14 0
5 -5 9 -10 9 -6 0 -38 26 -70 59 -33 32 -96 87 -140 122 -65 51 -80 68 -75 84
3 11 21 83 41 160 39 153 41 225 9 302 -9 21 -18 44 -19 51 -1 7 -30 44 -64
82 -46 51 -80 77 -129 102 -62 30 -75 33 -163 33 -88 0 -101 -3 -162 -33 -76
-37 -153 -114 -189 -189 -12 -26 -33 -87 -45 -136 -13 -49 -24 -91 -26 -92 -2
-2 -53 1 -113 6 -61 5 -162 6 -226 2 l-116 -6 -17 74 c-41 172 -121 279 -256
343 -58 28 -75 31 -155 31 -82 0 -97 -3 -156 -32 -94 -46 -152 -102 -191 -181
-32 -65 -33 -70 -32 -187 1 -99 6 -134 27 -200 l26 -80 -26 -20 c-330 -254
-501 -452 -648 -748 -71 -142 -112 -259 -149 -417 -41 -180 -49 -269 -41 -486
7 -215 7 -336 -1 -343 -3 -3 -9 1 -15 9 -7 11 -8 7 -4 -15 3 -16 2 -24 -1 -17
-4 9 -16 3 -38 -20 -29 -30 -37 -33 -79 -30 -31 3 -47 0 -47 -8 0 -6 -16 -27
-36 -46 -30 -28 -44 -34 -80 -34 -28 0 -44 -5 -44 -12 0 -9 -3 -9 -12 0 -19
19 -58 15 -59 -5 -1 -17 -2 -17 -6 0 -3 10 -11 29 -18 44 -7 14 -11 33 -8 42
4 13 3 13 -7 -1 -8 -13 -7 -25 4 -47 8 -15 13 -31 10 -34 -5 -4 83 -251 104
-293 5 -11 26 -55 47 -99 164 -351 435 -658 803 -910 l112 -76 0 -60 0 -59
-42 21 c-24 12 -96 57 -160 100 -564 378 -951 987 -1048 1648 -11 75 -20 171
-20 213 0 42 -4 80 -10 83 -5 3 -10 -1 -10 -9 0 -23 -49 -56 -85 -56 -56 0
-97 66 -75 121 25 59 126 60 155 2 9 -17 13 12 23 140 12 178 44 345 99 526
19 64 36 126 37 138 0 11 4 19 9 16 7 -4 11 18 9 52 -2 16 0 17 8 5 7 -11 10
-11 10 -2 0 14 26 75 66 154 22 44 23 47 5 45 -11 -1 -17 -5 -14 -10 9 -15 -7
-56 -21 -51 -16 6 -4 101 15 118 9 8 10 6 6 -7 -4 -11 -3 -16 3 -12 6 3 10 1
10 -6 0 -7 3 -9 6 -6 4 4 -1 18 -10 31 -9 14 -16 32 -16 41 0 9 -6 18 -13 21
-17 6 -16 70 1 66 17 -3 15 40 -4 64 -12 15 -14 15 -10 2 2 -9 -4 -24 -14 -33
-11 -10 -22 -27 -26 -38 -4 -11 -15 -30 -26 -41 -20 -22 -22 -26 -102 -181
l-51 -100 -3 59 c-2 41 1 62 10 67 9 6 6 9 -9 9 -19 0 -23 6 -23 31 0 18 -5
49 -11 70 -13 43 -5 79 13 61 7 -7 17 -12 22 -12 6 0 4 5 -4 10 -11 7 -11 10
-2 10 7 0 10 5 6 11 -4 8 -9 7 -15 -2 -18 -29 -9 11 11 46 19 33 19 34 1 23
-11 -6 -17 -17 -14 -25 3 -7 -2 -15 -10 -19 -9 -3 -14 -11 -11 -19 3 -7 -2
-15 -10 -18 -26 -10 -24 -6 77 167 10 17 26 37 35 44 9 6 12 12 8 12 -4 0 10
25 32 54 328 458 761 808 1234 997 447 178 862 243 1343 209z m1095 -330 c-8
-5 -19 -10 -25 -10 -5 0 -3 5 5 10 8 5 20 10 25 10 6 0 3 -5 -5 -10z m45 -20
c-3 -5 -12 -10 -18 -10 -7 0 -6 4 3 10 19 12 23 12 15 0z m-75 -96 c0 -2 -7
-4 -15 -4 -8 0 -15 4 -15 10 0 5 7 7 15 4 8 -4 15 -8 15 -10z m-1799 -245 c41
-21 74 -58 95 -107 7 -18 52 -182 100 -365 113 -435 213 -812 220 -831 6 -17
-11 -22 -20 -7 -3 5 -35 17 -70 26 -79 21 -165 15 -248 -19 l-56 -23 -5 21
c-2 12 -50 194 -107 406 -200 752 -201 755 -150 832 63 95 144 117 241 67z
m1306 3 c37 -20 90 -91 104 -139 11 -40 10 -55 -4 -107 -10 -34 -71 -270 -138
-526 -66 -256 -140 -541 -165 -635 -163 -617 -181 -716 -150 -818 18 -60 94
-166 143 -199 130 -90 321 -89 451 2 l42 30 -6 -28 c-54 -222 -146 -420 -327
-709 l-101 -163 -532 0 c-292 0 -571 -3 -620 -6 l-90 -7 -106 164 c-132 206
-337 548 -394 658 -51 99 -77 205 -78 316 0 67 4 90 27 140 47 100 83 129 347
280 85 48 196 112 245 140 142 83 222 124 259 130 74 14 170 -61 196 -153 15
-56 -5 -118 -55 -166 -32 -32 -290 -188 -422 -255 -13 -7 -23 -16 -23 -22 0
-15 157 -192 309 -348 100 -102 139 -149 164 -200 32 -65 32 -67 35 -233 l4
-168 100 0 100 0 -4 203 -3 202 -39 80 c-35 72 -56 97 -206 246 l-167 165 118
62 c218 116 257 171 338 487 74 288 140 538 209 795 33 124 86 324 118 445 31
121 65 237 75 257 45 89 160 126 246 80z m-3343 -878 c3 -8 2 -12 -4 -9 -6 3
-10 10 -10 16 0 14 7 11 14 -7z m4001 -49 c6 0 10 -7 10 -15 0 -8 4 -21 9 -29
17 -27 -13 -1 -36 31 -12 17 -15 27 -7 22 7 -5 19 -9 24 -9z m-4044 -28 c-10
-9 -11 -8 -5 6 3 10 9 15 12 12 3 -3 0 -11 -7 -18z m342 -134 c-3 -7 -9 -10
-14 -7 -14 8 -11 21 5 21 8 0 12 -6 9 -14z m3233 -303 c66 -26 124 -98 144
-181 11 -45 8 -64 -55 -311 -37 -144 -75 -278 -85 -298 -36 -69 -104 -110
-182 -110 -90 1 -167 71 -175 157 -4 43 47 271 138 616 25 96 131 159 215 127z
m1555 -619 c51 -52 29 -126 -41 -137 -64 -10 -119 62 -90 116 11 21 61 49 88
50 8 0 27 -13 43 -29z m-4293 -486 l0 -30 -8 30 c-4 17 -8 44 -8 60 l0 30 8
-30 c4 -16 8 -43 8 -60z m3807 -745 c3 -5 1 -10 -4 -10 -6 0 -11 5 -11 10 0 6
2 10 4 10 3 0 8 -4 11 -10z m-25 -55 c-7 -9 -15 -13 -19 -10 -3 3 1 10 9 15
21 14 24 12 10 -5z m-127 -196 c-8 -8 -13 -7 -18 2 -6 8 -4 10 5 4 10 -6 12
-4 6 11 -6 15 -5 17 5 7 9 -10 10 -16 2 -24z m-933 -154 l0 -155 -960 0 -960
0 0 155 0 155 960 0 960 0 0 -155z m914 137 c3 -5 -10 -23 -28 -41 -26 -25
-36 -30 -41 -19 -5 7 -5 10 0 6 11 -10 37 11 29 24 -3 5 3 12 15 15 11 3 18 9
15 14 -3 5 -3 9 0 9 3 0 7 -4 10 -8z m-63 -29 c13 -16 12 -17 -3 -4 -10 7 -18
15 -18 17 0 8 8 3 21 -13z m-23 -84 c-12 -16 -27 -29 -32 -29 -6 0 -5 4 2 9 7
4 12 14 10 21 -2 8 4 15 12 15 8 1 14 7 12 14 -1 7 2 10 8 6 6 -4 1 -18 -12
-36z m-38 -42 c0 -2 -12 -14 -27 -28 -20 -18 -24 -19 -13 -4 18 24 40 42 40
32z m-2650 -357 c19 0 42 -4 49 -9 16 -10 -1 -16 -64 -24 -23 -3 -20 -4 13 -6
40 -1 42 -3 42 -31 0 -49 30 -70 100 -70 l60 0 0 -161 c0 -104 3 -158 10 -154
6 3 10 22 10 41 0 19 5 34 10 34 6 0 10 -17 10 -39 0 -35 3 -39 31 -45 17 -3
44 -6 60 -6 l29 0 0 205 c0 204 0 205 -22 205 l-21 0 21 23 c12 13 22 28 22
35 0 6 4 13 8 16 11 6 13 -637 2 -654 -7 -11 -23 -10 -97 5 -117 24 -192 43
-173 45 32 4 75 -2 78 -11 2 -5 8 -9 14 -9 6 0 8 7 4 15 -3 10 1 15 13 15 10
0 21 6 24 14 3 8 18 17 34 19 15 3 1 5 -32 5 -33 -1 -72 0 -87 0 l-28 2 -2 83
c-1 45 -3 63 -5 40 -3 -35 -8 -43 -24 -43 -10 0 -19 -5 -19 -11 0 -6 8 -8 19
-4 16 5 19 0 23 -35 2 -22 3 -40 2 -40 -1 0 -10 -3 -20 -7 -12 -4 -15 -3 -10
5 9 15 0 14 -44 -4 -34 -13 -34 -14 -5 -9 17 3 37 1 45 -4 31 -20 -19 -23 -75
-4 l-56 18 -5 290 c-4 229 -2 287 8 277 6 -6 28 -12 48 -12z m1011 -223 c19
-12 44 -43 57 -68 19 -39 21 -52 13 -89 -16 -70 -77 -120 -147 -120 -146 0
-218 171 -112 266 30 28 43 32 104 33 37 1 60 -5 85 -22z m-731 -37 c0 -38 -2
-40 -30 -40 -28 0 -30 2 -30 40 0 38 2 40 30 40 28 0 30 -2 30 -40z m-95 -300
c11 -5 18 -9 15 -11 -15 -6 -58 -7 -79 -3 -20 4 -22 7 -10 15 17 11 47 11 74
-1z"/>
<path d="M6140 7730 c8 -5 20 -10 25 -10 6 0 3 5 -5 10 -8 5 -19 10 -25 10 -5
0 -3 -5 5 -10z"/>
<path d="M6340 7470 c-12 -7 -10 -9 7 -7 12 0 19 5 17 9 -6 10 -6 10 -24 -2z"/>
<path d="M6550 7329 c13 -13 25 -22 26 -19 1 3 12 -4 25 -15 l24 -20 -19 22
c-10 13 -23 20 -27 17 -5 -3 -9 -1 -9 5 0 6 -10 16 -22 22 -22 11 -22 10 2
-12z"/>
<path d="M6700 7135 c-24 -14 -24 -14 -4 -15 12 0 24 7 28 15 6 18 7 18 -24 0z"/>
<path d="M6459 6843 c-13 -16 -12 -17 4 -4 9 7 17 15 17 17 0 8 -8 3 -21 -13z"/>
<path d="M6440 6804 c0 -15 30 -40 60 -49 24 -7 24 -7 5 8 -11 8 -24 13 -29 9
-5 -3 -7 2 -3 12 4 11 3 15 -4 10 -6 -4 -15 0 -20 7 -5 8 -9 9 -9 3z"/>
<path d="M3381 5144 c0 -11 3 -14 6 -6 3 7 2 16 -1 19 -3 4 -6 -2 -5 -13z"/>
<path d="M3372 5100 c0 -14 2 -19 5 -12 2 6 2 18 0 25 -3 6 -5 1 -5 -13z"/>
<path d="M2902 5070 c0 -14 2 -19 5 -12 2 6 2 18 0 25 -3 6 -5 1 -5 -13z"/>
<path d="M2906 5005 c8 -50 14 -58 14 -19 0 16 -5 36 -11 44 -7 11 -8 4 -3
-25z"/>
<path d="M7320 4555 c0 -5 5 -17 10 -25 5 -8 10 -10 10 -5 0 6 -5 17 -10 25
-5 8 -10 11 -10 5z"/>
<path d="M7280 4505 c0 -5 5 -17 10 -25 5 -8 10 -10 10 -5 0 6 -5 17 -10 25
-5 8 -10 11 -10 5z"/>
<path d="M7275 4440 c-3 -5 -1 -10 4 -10 6 0 11 5 11 10 0 6 -2 10 -4 10 -3 0
-8 -4 -11 -10z"/>
<path d="M4240 3418 c0 -19 2 -20 10 -8 13 19 13 30 0 30 -5 0 -10 -10 -10
-22z"/>
<path d="M4313 3080 c0 -25 2 -35 4 -22 2 12 2 32 0 45 -2 12 -4 2 -4 -23z"/>
<path d="M4428 3043 c7 -3 16 -2 19 1 4 3 -2 6 -13 5 -11 0 -14 -3 -6 -6z"/>
<path d="M4270 2950 c-13 -9 -13 -10 0 -10 8 0 22 5 30 10 13 9 13 10 0 10 -8
0 -22 -5 -30 -10z"/>
<path d="M4408 2933 c6 -2 18 -2 25 0 6 3 1 5 -13 5 -14 0 -19 -2 -12 -5z"/>
<path d="M2906 2419 c-41 -32 -34 -89 13 -113 68 -36 125 65 65 113 -15 12
-32 21 -39 21 -7 0 -24 -9 -39 -21z"/>
<path d="M3509 2426 c-35 -17 -49 -79 -24 -106 35 -39 125 -14 125 35 0 53
-56 94 -101 71z"/>
<path d="M7168 2298 c-5 -249 -3 -282 21 -332 26 -52 68 -82 129 -92 l42 -7 0
52 c0 28 0 54 1 59 0 4 -10 9 -23 12 -13 3 -30 20 -40 40 -15 30 -18 64 -18
223 l0 187 -55 0 -55 0 -2 -142z"/>
<path d="M2270 2426 c0 -3 45 -104 99 -225 55 -120 110 -242 122 -270 l21 -51
52 0 51 0 27 63 c14 34 56 130 93 212 36 83 77 178 90 213 l23 63 -71 -3 -71
-3 -68 -175 c-37 -96 -69 -179 -71 -184 -3 -9 -66 140 -119 282 l-31 82 -73 0
c-41 0 -74 -2 -74 -4z"/>
<path d="M5616 2373 c14 -32 50 -112 79 -178 29 -66 74 -164 100 -217 l49 -98
51 0 52 0 51 113 c28 61 64 146 80 187 17 41 46 110 66 153 20 43 36 82 36 88
0 5 -31 9 -69 9 l-68 0 -72 -179 c-39 -98 -71 -183 -71 -190 0 -18 -20 -12
-20 7 -1 9 -32 94 -69 187 l-69 170 -76 3 -76 3 26 -58z"/>
<path d="M7524 2363 c-41 -4 -42 -4 -48 -53 l-7 -49 -42 -3 -42 -3 3 -45 c2
-25 5 -47 7 -48 2 -2 19 -4 38 -5 l35 -1 4 -91 c6 -141 52 -195 165 -195 l53
0 0 44 c0 24 3 52 6 60 5 14 0 16 -35 10 -61 -10 -71 4 -71 92 l0 74 50 0 c41
0 50 3 50 18 0 9 3 34 6 55 l7 37 -57 0 -56 0 0 55 c0 38 -4 54 -12 53 -7 -1
-32 -3 -54 -5z"/>
<path d="M3205 2260 c-72 -16 -105 -53 -105 -116 0 -61 27 -90 111 -115 53
-16 69 -25 69 -39 0 -37 -58 -36 -112 1 -14 11 -28 19 -31 19 -2 0 -16 -18
-31 -40 l-26 -39 47 -27 c36 -22 59 -28 107 -28 103 0 156 45 156 134 0 53
-30 82 -105 100 -65 16 -91 32 -80 50 10 17 81 7 106 -16 10 -9 21 -15 22 -13
9 11 47 81 47 85 0 8 -82 41 -115 46 -16 3 -43 2 -60 -2z"/>
<path d="M4925 2261 c-36 -9 -73 -28 -99 -50 -15 -13 -18 -14 -16 -1 7 45 2
50 -55 50 l-55 0 0 -190 0 -190 60 0 60 0 0 90 c0 129 25 170 103 170 31 0 35
4 41 31 8 43 8 99 -1 98 -5 -1 -21 -4 -38 -8z"/>
<path d="M6325 2263 c-16 -2 -52 -11 -78 -20 -43 -13 -48 -18 -42 -37 4 -11 9
-31 12 -44 4 -19 10 -22 27 -17 93 29 149 27 166 -6 15 -27 14 -28 -44 -22
-124 13 -219 -65 -186 -153 18 -48 59 -83 104 -89 37 -6 72 2 139 30 13 5 17
2 17 -15 0 -16 4 -20 16 -16 9 3 32 6 51 6 l36 0 -7 143 c-6 113 -11 148 -27
173 -28 46 -110 75 -184 67z m69 -223 c30 -11 33 -31 9 -52 -25 -21 -61 -28
-90 -17 -34 13 -29 60 7 70 36 10 46 10 74 -1z"/>
<path d="M2880 2070 l0 -190 55 0 55 0 0 190 0 190 -55 0 -55 0 0 -190z"/>
<path d="M3482 2073 l3 -188 58 -3 58 -3 -3 188 -3 188 -58 3 -57 3 2 -188z"/>
<path d="M3795 2237 c-67 -38 -114 -132 -100 -200 29 -137 172 -202 300 -137
39 21 55 37 78 80 24 47 28 63 23 105 -7 61 -47 121 -101 152 -55 31 -145 31
-200 0z m163 -113 c30 -35 30 -87 -3 -119 -52 -53 -145 -16 -145 57 0 87 91
125 148 62z"/>
<path d="M4196 2223 c-8 -49 -8 -137 0 -251 l7 -92 53 0 54 0 0 110 c0 107 1
112 26 135 17 16 39 25 60 25 50 0 64 -28 64 -126 0 -45 3 -96 6 -113 6 -30 8
-31 61 -31 l55 0 -4 138 c-4 154 -13 182 -68 220 -29 20 -44 23 -93 20 -46 -4
-63 -10 -87 -33 l-30 -29 0 32 c0 32 -1 32 -49 32 -48 0 -48 0 -55 -37z"/>
<path d="M5010 2250 c0 -5 39 -91 86 -191 l86 -181 -30 -31 c-24 -23 -39 -30
-71 -30 l-41 0 0 -53 0 -54 55 0 c96 0 146 42 193 160 17 41 60 142 96 224 36
82 66 153 66 158 0 5 -27 8 -61 6 l-61 -3 -44 -103 c-24 -57 -44 -111 -44
-120 0 -9 -3 -12 -8 -6 -9 9 -76 173 -87 212 -6 20 -13 22 -71 22 -35 0 -64
-4 -64 -10z"/>
<path d="M6660 2123 c0 -124 3 -142 23 -177 12 -21 38 -48 57 -58 46 -25 125
-20 168 11 32 22 32 22 32 2 0 -19 6 -21 55 -21 l55 0 -2 188 -3 187 -57 3
-58 3 0 -116 c0 -113 -1 -117 -26 -140 -34 -32 -84 -33 -110 -4 -16 18 -20 40
-22 140 l-4 119 -54 0 -54 0 0 -137z"/>
<path d="M8920 10236 c0 -2 30 -21 68 -42 37 -21 78 -45 92 -55 133 -90 601
-399 606 -399 3 0 16 -8 29 -17 26 -20 21 -17 174 -118 63 -41 117 -75 121
-75 3 0 21 -13 40 -30 19 -16 40 -29 47 -30 7 0 16 -6 20 -12 4 -7 17 -19 28
-26 11 -7 34 -21 50 -32 17 -11 33 -20 38 -20 4 0 7 24 7 54 l0 54 -52 32
c-29 18 -90 58 -135 89 -46 31 -107 71 -135 89 -29 18 -60 38 -68 45 -25 21
-162 111 -207 137 -24 13 -43 27 -43 32 0 4 -5 8 -10 8 -6 0 -75 42 -153 94
-78 51 -158 101 -177 111 -19 10 -67 40 -106 67 -71 48 -72 48 -153 48 -44 0
-81 -2 -81 -4z"/>
<path d="M9355 10216 c17 -14 41 -31 55 -38 14 -7 30 -17 35 -21 6 -4 44 -30
85 -56 41 -27 122 -79 179 -117 57 -38 139 -91 182 -119 43 -27 109 -71 148
-97 39 -27 73 -48 76 -48 4 0 21 -11 38 -24 18 -13 44 -31 60 -41 l27 -17 0
301 0 301 -457 0 -458 0 30 -24z"/>
<path d="M10096 6712 c-4 -7 -4 -22 -1 -33 5 -14 3 -19 -4 -15 -7 5 -9 1 -5
-11 18 -56 23 -70 30 -88 10 -27 10 -26 18 -60 4 -16 13 -43 19 -60 7 -16 12
-34 13 -40 0 -5 11 -44 24 -85 13 -41 29 -113 36 -160 11 -83 12 -81 13 128 1
211 1 213 -25 262 -15 28 -31 47 -37 43 -6 -3 -7 -1 -3 5 9 15 -12 54 -24 47
-6 -3 -8 0 -5 7 7 18 -40 75 -49 60z"/>
<path d="M9970 6192 c0 -4 5 -13 12 -20 8 -8 9 -12 1 -12 -6 0 -13 6 -16 13
-2 6 -8 9 -12 5 -4 -4 -2 -14 5 -23 17 -21 49 -76 56 -97 4 -10 10 -18 15 -18
5 0 17 -17 28 -37 11 -21 32 -51 47 -68 14 -16 32 -43 40 -60 7 -16 13 -26 14
-22 0 10 30 -19 30 -30 1 -4 12 -21 25 -38 l25 -30 0 78 c0 49 -5 84 -12 92
-26 29 -36 42 -47 63 -7 13 -16 20 -21 17 -5 -3 -11 4 -15 15 -4 11 -18 28
-33 38 -28 18 -74 67 -107 113 -19 28 -35 37 -35 21z"/>
<path d="M1030 5436 c0 -2 7 -6 15 -10 8 -3 15 -1 15 4 0 6 -7 10 -15 10 -8 0
-15 -2 -15 -4z"/>
<path d="M415 4950 c-3 -5 -2 -10 4 -10 5 0 13 5 16 10 3 6 2 10 -4 10 -5 0
-13 -4 -16 -10z"/>
<path d="M705 4440 c3 -5 10 -10 16 -10 5 0 9 5 9 10 0 6 -7 10 -16 10 -8 0
-12 -4 -9 -10z"/>
<path d="M598 4313 c7 -3 16 -2 19 1 4 3 -2 6 -13 5 -11 0 -14 -3 -6 -6z"/>
<path d="M487 4062 c-24 -27 -21 -36 4 -11 11 11 19 23 16 25 -2 2 -11 -4 -20
-14z"/>
<path d="M397 3973 c-4 -3 -7 -11 -7 -17 0 -6 5 -5 12 2 6 6 9 14 7 17 -3 3
-9 2 -12 -2z"/>
<path d="M431 3944 c0 -11 3 -14 6 -6 3 7 2 16 -1 19 -3 4 -6 -2 -5 -13z"/>
<path d="M349 3884 c-20 -49 -20 -72 1 -33 15 27 30 79 24 79 -3 0 -14 -21
-25 -46z"/>
<path d="M10125 3860 c3 -5 13 -10 21 -10 8 0 12 5 9 10 -3 6 -13 10 -21 10
-8 0 -12 -4 -9 -10z"/>
<path d="M10190 3836 c14 -9 32 -15 40 -15 13 0 13 1 0 8 -8 5 -26 12 -40 15
l-25 7 25 -15z"/>
<path d="M25 3687 c-4 -10 -5 -21 -1 -24 10 -10 18 4 13 24 -4 17 -4 17 -12 0z"/>
<path d="M1300 1937 c0 -13 81 -179 85 -175 3 3 -11 37 -30 77 -19 39 -35 76
-35 81 0 5 -4 12 -10 15 -5 3 -10 4 -10 2z"/>
<path d="M1497 1566 c10 -13 19 -23 21 -21 5 5 -22 45 -31 45 -4 0 0 -11 10
-24z"/>
<path d="M1550 1490 c12 -16 24 -30 26 -30 3 0 -4 14 -16 30 -12 17 -24 30
-26 30 -3 0 4 -13 16 -30z"/>
<path d="M2025 1210 c-8 -13 15 -13 35 0 12 8 11 10 -7 10 -12 0 -25 -4 -28
-10z"/>
<path d="M1987 1099 c7 -7 15 -10 18 -7 3 3 -2 9 -12 12 -14 6 -15 5 -6 -5z"/>
<path d="M2060 1070 c-9 -6 -10 -10 -3 -10 6 0 15 5 18 10 8 12 4 12 -15 0z"/>
<path d="M10130 950 c0 -5 5 -10 10 -10 6 0 10 5 10 10 0 6 -4 10 -10 10 -5 0
-10 -4 -10 -10z"/>
<path d="M10080 880 c0 -5 5 -10 11 -10 5 0 7 5 4 10 -3 6 -8 10 -11 10 -2 0
-4 -4 -4 -10z"/>
<path d="M9775 470 c3 -5 10 -10 16 -10 5 0 9 5 9 10 0 6 -7 10 -16 10 -8 0
-12 -4 -9 -10z"/>
<path d="M9691 344 c0 -11 3 -14 6 -6 3 7 2 16 -1 19 -3 4 -6 -2 -5 -13z"/>
<path d="M9615 220 c-3 -5 1 -10 10 -10 9 0 13 5 10 10 -3 6 -8 10 -10 10 -2
0 -7 -4 -10 -10z"/>
<path d="M9365 61 c-3 -5 -1 -12 5 -16 5 -3 10 1 10 9 0 18 -6 21 -15 7z"/>
</g>
</svg>
